<svg xmlns="http://www.w3.org/2000/svg" version="1.1" xlink="http://www.w3.org/1999/xlink" xmlns:svgjs="http://svgjs.com/svgjs" width="100%" height="100%" preserveAspectRatio="xMidYMid meet" viewBox="-0.0000031441450119018555 0 300.0057373046875 65.71427917480469" overflow="visible"><defs id="SvgjsDefs121991"></defs><g id="SvgjsG121992" transform="scale(0.6493506493506493)" opacity="1"><g id="SvgjsG121993" class="text" transform="translate(233.3230454545455, 99.03) scale(1)" light-content="false" fill="#dd2e13"><path d="M-195.5 -80.93C-193.53 -80.8 -192.19 -80.6 -191.49 -80.34C-188.99 -79.59 -187.63 -75.82 -187.41 -69.02C-187.19 -62.22 -188.18 -54.53 -190.37 -45.93C-195.33 -26.54 -200.9 -16.84 -207.08 -16.84C-209.45 -16.84 -211.03 -16.89 -211.82 -16.98ZM-214.19 -80.21L-232.94 -6.97C-233.47 -4.96 -233.45 -3.44 -232.88 -2.43C-232.3 -1.43 -231.16 -0.75 -229.45 -0.39C-226.16 0.22 -219.78 0.53 -210.31 0.53C-206.36 0.53 -202.64 -0.2 -199.15 -1.64C-195.67 -3.09 -192.57 -5.07 -189.88 -7.57C-187.18 -10.07 -184.69 -13.1 -182.41 -16.68C-180.13 -20.26 -178.19 -24.05 -176.58 -28.06C-174.98 -32.08 -173.57 -36.43 -172.34 -41.12C-169.45 -52.13 -168 -61.65 -168 -69.68C-168 -72.93 -168.28 -75.92 -168.85 -78.66C-169.42 -81.4 -170.4 -84.01 -171.78 -86.49C-173.16 -88.97 -174.93 -91.09 -177.08 -92.84C-179.23 -94.6 -181.94 -95.98 -185.2 -96.99C-188.47 -98 -192.21 -98.5 -196.42 -98.5C-198.57 -98.5 -200.67 -98.46 -202.71 -98.37C-204.75 -98.28 -206.45 -98.17 -207.81 -98.04C-209.17 -97.91 -210.58 -97.73 -212.05 -97.51C-213.52 -97.29 -214.57 -97.13 -215.21 -97.02C-215.84 -96.91 -216.69 -96.75 -217.74 -96.53C-218.79 -96.31 -219.34 -96.2 -219.39 -96.2C-221.23 -95.72 -222.26 -94.82 -222.48 -93.5L-223.79 -82.91C-223.93 -81.85 -223.76 -80.95 -223.3 -80.21C-222.84 -79.46 -222.06 -79.09 -220.97 -79.09C-220.44 -79.09 -219.54 -79.23 -218.27 -79.52C-217 -79.8 -215.64 -80.03 -214.19 -80.21Z M-98.28 0C-97.31 0 -96.39 -0.37 -95.51 -1.12C-94.64 -1.86 -94.11 -2.74 -93.93 -3.75L-92.22 -11.71C-91.57 -14.61 -92.51 -16.05 -95.05 -16.05L-120.78 -16.05L-113.48 -44.87L-89.66 -44.87C-88.69 -44.87 -87.77 -45.25 -86.89 -45.99C-86.02 -46.74 -85.49 -47.62 -85.31 -48.63L-83.6 -56.59C-82.95 -59.48 -83.89 -60.93 -86.43 -60.93L-109.4 -60.93L-104.13 -81.52L-78.47 -81.52C-77.46 -81.52 -76.49 -81.9 -75.54 -82.64C-74.6 -83.39 -74.04 -84.27 -73.87 -85.28L-72.15 -93.24C-71.5 -96.13 -72.53 -97.58 -75.25 -97.58L-103.8 -97.58L-115.25 -97.58L-125.19 -97.58C-126.11 -97.58 -126.72 -97.43 -127.03 -97.12C-127.34 -96.81 -127.62 -96.07 -127.89 -94.88L-130.06 -86.39C-130.5 -84.64 -130.52 -83.39 -130.12 -82.64C-129.73 -81.9 -128.85 -81.52 -127.49 -81.52L-122.62 -81.52L-142.36 -4.15C-142.63 -3 -142.52 -2.03 -142.03 -1.22C-141.55 -0.41 -140.76 0 -139.66 0L-136.11 0L-128.15 0Z M-4.54 -99.03C-8.88 -99.03 -13.16 -97.68 -17.37 -94.98C-21.58 -92.28 -25.19 -88.89 -28.19 -84.81C-31.2 -80.74 -33.62 -76.25 -35.47 -71.36C-37.31 -66.47 -38.23 -61.85 -38.23 -57.51C-38.23 -55.18 -37.82 -53.1 -37.01 -51.26C-36.2 -49.41 -35.13 -47.93 -33.79 -46.82C-32.45 -45.7 -31.13 -44.82 -29.84 -44.18C-28.55 -43.55 -27.22 -43.05 -25.86 -42.7L-23.69 -42.18C-22.28 -41.83 -21.11 -41.39 -20.17 -40.86C-19.22 -40.33 -18.49 -39.8 -17.96 -39.25C-17.44 -38.7 -17.04 -37.98 -16.78 -37.08C-16.52 -36.18 -16.36 -35.37 -16.32 -34.64C-16.27 -33.92 -16.25 -32.92 -16.25 -31.65C-16.25 -27 -17.28 -22.85 -19.34 -19.21C-21.41 -15.57 -23.62 -13.16 -25.99 -11.98C-26.65 -11.71 -27.42 -11.58 -28.29 -11.58C-29.87 -13.42 -30.53 -19.72 -30.27 -30.46C-30.27 -31.56 -30.74 -32.31 -31.68 -32.7C-32.63 -33.1 -33.91 -33.03 -35.53 -32.5L-45.93 -28.82C-46.98 -28.43 -47.78 -27.64 -48.33 -26.45C-48.88 -25.27 -49.15 -23.95 -49.15 -22.5C-49.15 -20.22 -49.02 -18.06 -48.76 -16.02C-48.49 -13.98 -47.92 -11.8 -47.05 -9.48C-46.17 -7.15 -45.03 -5.18 -43.62 -3.55C-42.22 -1.93 -40.27 -0.57 -37.77 0.53C-35.27 1.62 -32.37 2.17 -29.08 2.17C-25.09 2.17 -21.06 1 -16.98 -1.35C-12.9 -3.7 -9.29 -6.72 -6.15 -10.43C-3.02 -14.14 -0.46 -18.42 1.51 -23.29C3.49 -28.16 4.47 -32.97 4.47 -37.7C4.47 -40.95 4.19 -43.7 3.62 -45.96C3.05 -48.22 2.17 -50.01 0.99 -51.32C-0.2 -52.64 -1.4 -53.63 -2.63 -54.28C-3.86 -54.94 -5.4 -55.53 -7.24 -56.06L-9.67 -56.72C-12.52 -57.55 -14.48 -58.46 -15.53 -59.45C-16.58 -60.44 -17.11 -62.18 -17.11 -64.68C-17.11 -68.15 -16.12 -71.85 -14.15 -75.8C-12.17 -79.75 -10.42 -82.16 -8.88 -83.04C-8.49 -83.26 -8.16 -83.3 -7.9 -83.17C-5.44 -80.01 -4.06 -74.66 -3.75 -67.11C-3.71 -65.8 -3.14 -64.93 -2.04 -64.52C-0.94 -64.1 0.07 -64.02 0.99 -64.29L10.79 -66.85C12.94 -67.38 14.02 -68.8 14.02 -71.13C14.02 -79.86 12.52 -86.69 9.54 -91.62C6.56 -96.56 1.86 -99.03 -4.54 -99.03Z M78.34 -97.58L65.11 -97.58C63.36 -97.58 62.15 -96.94 61.5 -95.67C55.27 -82.64 51.19 -66.92 49.26 -48.49C47.33 -30.07 48.29 -14.8 52.15 -2.7C52.77 -0.9 54.08 0 56.1 0L66.17 0C69.81 -3.55 73.61 -8.03 77.58 -13.42C81.55 -18.82 85.16 -24.43 88.41 -30.27C88.89 -19.13 90.38 -9.94 92.88 -2.7C93.23 -1.73 93.65 -1.04 94.13 -0.63C94.61 -0.21 95.32 0 96.24 0L105.51 0C110.3 -2.06 115.01 -6 119.66 -11.81C124.31 -17.62 128.37 -24.21 131.83 -31.58C135.3 -38.95 138.37 -46.65 141.05 -54.68C143.72 -62.71 145.75 -70.19 147.13 -77.12C148.51 -84.05 149.21 -89.75 149.21 -94.22C149.21 -95.54 148.98 -96.43 148.51 -96.89C148.05 -97.35 147.08 -97.58 145.59 -97.58L133.41 -97.58C132.58 -97.58 131.97 -97.43 131.57 -97.12C131.18 -96.81 130.95 -96.49 130.88 -96.16C130.81 -95.84 130.76 -95.23 130.72 -94.36C130.41 -87.82 129.24 -80.02 127.2 -70.96C125.16 -61.91 122.21 -52.53 118.35 -42.84C114.49 -33.14 110.32 -25.49 105.84 -19.87C104.31 -26.45 104.24 -38.47 105.65 -55.93C106.57 -67.95 109.22 -80.47 113.61 -93.5C114.57 -96.22 114 -97.58 111.9 -97.58L99.72 -97.58C98.41 -97.58 97.41 -97.33 96.73 -96.82C96.05 -96.32 95.49 -95.41 95.05 -94.09C94.22 -91.11 93.36 -87.47 92.49 -83.17L92.22 -83.04C90.34 -73.78 86.78 -63.3 81.56 -51.59C76.34 -39.87 70.8 -30.03 64.92 -22.04C64.04 -28.62 64.48 -37.08 66.23 -47.41C67.99 -57.74 70.14 -66.94 72.68 -75.01C75.23 -83.08 77.46 -88.85 79.39 -92.32C80.31 -94.25 80.63 -95.61 80.35 -96.4C80.06 -97.18 79.39 -97.58 78.34 -97.58ZM108.8 -14.41L109.73 -14.15C109.46 -14.15 109.16 -14.23 108.8 -14.41Z M185.7 -26.25L207.08 -26.25L205.63 -3.62C205.5 -1.21 206.53 0 208.73 0L219.65 0C222.19 0 223.53 -0.99 223.66 -2.96L228.66 -90.93C228.8 -93.08 228.37 -94.71 227.38 -95.8C226.39 -96.9 225.07 -97.45 223.4 -97.45L207.87 -97.32C206.51 -97.32 205.17 -96.86 203.86 -95.93C202.54 -95.01 201.42 -93.68 200.5 -91.92L155.5 -5.26C154.79 -3.99 154.71 -2.85 155.23 -1.84C155.76 -0.83 156.83 -0.31 158.46 -0.26L168.92 0.13C171.42 0.26 173.13 -0.64 174.05 -2.57ZM193.53 -42.31L210.5 -76.92L208.2 -42.31Z"></path></g></g></svg>